<svg xmlns="http://www.w3.org/2000/svg" xmlns:xlink="http://www.w3.org/1999/xlink" width="100%" height="100%" fill-rule="evenodd" stroke-linejoin="round" stroke-miterlimit="1.414" clip-rule="evenodd" version="1.1" viewBox="0 0 512 512" xml:space="preserve"><g><path fill="#4CAF50" fill-rule="nonzero" d="M188.864,67.349C147.819,26.325 67.499,21.568 10.667,21.568C4.776,21.568 0,26.344 0,32.235C0,89.088 4.757,169.408 45.781,210.454C65.042,227.608 90.219,236.597 115.989,235.521C142.56,236.568 168.559,227.625 188.864,210.454C219.435,179.861 225.045,103.531 188.864,67.349Z" transform="matrix(1,0,0,1,21.099,63.765)"/></g><g><path fill="#4CAF50" fill-rule="nonzero" d="M459.136,63.765C402.283,63.765 321.963,68.522 280.917,109.546C244.65,145.813 250.346,222.037 280.917,252.629C301.228,269.803 327.235,278.746 353.813,277.696C379.582,278.77 404.759,269.781 424.021,252.629C465.066,211.584 469.802,131.264 469.802,74.41C469.791,68.528 465.019,63.765 459.136,63.765Z" transform="matrix(1,0,0,1,21.099,63.765)"/></g><g><path fill="#388E3C" fill-rule="nonzero" d="M224,448.235C218.109,448.235 213.333,443.459 213.333,437.568C213.333,211.328 130.368,154.56 99.136,133.205C95.369,130.8 91.802,128.096 88.469,125.12C84.376,120.883 84.494,114.13 88.731,110.037C92.865,106.044 99.418,106.044 103.552,110.037C105.961,112.074 108.513,113.935 111.189,115.605C138.922,134.57 204.245,179.264 226.837,325.866C244.296,249.221 296.05,184.871 367.168,151.381C372.614,148.819 379.114,150.871 382.101,156.096C384.799,160.851 383.133,166.892 378.378,169.591C378.2,169.692 378.018,169.788 377.834,169.878L376.106,170.689C259.157,225.665 234.602,346.156 234.602,437.569C234.603,443.434 229.866,448.199 224,448.235Z" transform="matrix(1,0,0,1,21.099,63.765)"/></g></svg>