G04 EAGLE Gerber RS-274X export*
G75*
%MOMM*%
%FSLAX34Y34*%
%LPD*%
%IN*%
%IPPOS*%
%AMOC8*
5,1,8,0,0,1.08239X$1,22.5*%
G01*
%ADD10C,0.254000*%


D10*
X-65000Y-48000D02*
X1244000Y-48000D01*
X1247000Y1447300D01*
X-62000Y1447300D01*
X-65000Y-48000D01*
X1215000Y1409719D02*
X1214937Y1409161D01*
X1214812Y1408614D01*
X1214627Y1408084D01*
X1214383Y1407578D01*
X1214084Y1407102D01*
X1213734Y1406663D01*
X1213337Y1406266D01*
X1212898Y1405916D01*
X1212422Y1405617D01*
X1211916Y1405373D01*
X1211386Y1405188D01*
X1210839Y1405063D01*
X1210281Y1405000D01*
X1209719Y1405000D01*
X1209161Y1405063D01*
X1208614Y1405188D01*
X1208084Y1405373D01*
X1207578Y1405617D01*
X1207102Y1405916D01*
X1206663Y1406266D01*
X1206266Y1406663D01*
X1205916Y1407102D01*
X1205617Y1407578D01*
X1205373Y1408084D01*
X1205188Y1408614D01*
X1205063Y1409161D01*
X1205000Y1409719D01*
X1205000Y1410281D01*
X1205063Y1410839D01*
X1205188Y1411386D01*
X1205373Y1411916D01*
X1205617Y1412422D01*
X1205916Y1412898D01*
X1206266Y1413337D01*
X1206663Y1413734D01*
X1207102Y1414084D01*
X1207578Y1414383D01*
X1208084Y1414627D01*
X1208614Y1414812D01*
X1209161Y1414937D01*
X1209719Y1415000D01*
X1210281Y1415000D01*
X1210839Y1414937D01*
X1211386Y1414812D01*
X1211916Y1414627D01*
X1212422Y1414383D01*
X1212898Y1414084D01*
X1213337Y1413734D01*
X1213734Y1413337D01*
X1214084Y1412898D01*
X1214383Y1412422D01*
X1214627Y1411916D01*
X1214812Y1411386D01*
X1214937Y1410839D01*
X1215000Y1410281D01*
X1215000Y1409719D01*
X1215000Y-10281D02*
X1214937Y-10839D01*
X1214812Y-11386D01*
X1214627Y-11916D01*
X1214383Y-12422D01*
X1214084Y-12898D01*
X1213734Y-13337D01*
X1213337Y-13734D01*
X1212898Y-14084D01*
X1212422Y-14383D01*
X1211916Y-14627D01*
X1211386Y-14812D01*
X1210839Y-14937D01*
X1210281Y-15000D01*
X1209719Y-15000D01*
X1209161Y-14937D01*
X1208614Y-14812D01*
X1208084Y-14627D01*
X1207578Y-14383D01*
X1207102Y-14084D01*
X1206663Y-13734D01*
X1206266Y-13337D01*
X1205916Y-12898D01*
X1205617Y-12422D01*
X1205373Y-11916D01*
X1205188Y-11386D01*
X1205063Y-10839D01*
X1205000Y-10281D01*
X1205000Y-9719D01*
X1205063Y-9161D01*
X1205188Y-8614D01*
X1205373Y-8084D01*
X1205617Y-7578D01*
X1205916Y-7102D01*
X1206266Y-6663D01*
X1206663Y-6266D01*
X1207102Y-5916D01*
X1207578Y-5617D01*
X1208084Y-5373D01*
X1208614Y-5188D01*
X1209161Y-5063D01*
X1209719Y-5000D01*
X1210281Y-5000D01*
X1210839Y-5063D01*
X1211386Y-5188D01*
X1211916Y-5373D01*
X1212422Y-5617D01*
X1212898Y-5916D01*
X1213337Y-6266D01*
X1213734Y-6663D01*
X1214084Y-7102D01*
X1214383Y-7578D01*
X1214627Y-8084D01*
X1214812Y-8614D01*
X1214937Y-9161D01*
X1215000Y-9719D01*
X1215000Y-10281D01*
X-25000Y1409719D02*
X-25063Y1409161D01*
X-25188Y1408614D01*
X-25373Y1408084D01*
X-25617Y1407578D01*
X-25916Y1407102D01*
X-26266Y1406663D01*
X-26663Y1406266D01*
X-27102Y1405916D01*
X-27578Y1405617D01*
X-28084Y1405373D01*
X-28614Y1405188D01*
X-29161Y1405063D01*
X-29719Y1405000D01*
X-30281Y1405000D01*
X-30839Y1405063D01*
X-31386Y1405188D01*
X-31916Y1405373D01*
X-32422Y1405617D01*
X-32898Y1405916D01*
X-33337Y1406266D01*
X-33734Y1406663D01*
X-34084Y1407102D01*
X-34383Y1407578D01*
X-34627Y1408084D01*
X-34812Y1408614D01*
X-34937Y1409161D01*
X-35000Y1409719D01*
X-35000Y1410281D01*
X-34937Y1410839D01*
X-34812Y1411386D01*
X-34627Y1411916D01*
X-34383Y1412422D01*
X-34084Y1412898D01*
X-33734Y1413337D01*
X-33337Y1413734D01*
X-32898Y1414084D01*
X-32422Y1414383D01*
X-31916Y1414627D01*
X-31386Y1414812D01*
X-30839Y1414937D01*
X-30281Y1415000D01*
X-29719Y1415000D01*
X-29161Y1414937D01*
X-28614Y1414812D01*
X-28084Y1414627D01*
X-27578Y1414383D01*
X-27102Y1414084D01*
X-26663Y1413734D01*
X-26266Y1413337D01*
X-25916Y1412898D01*
X-25617Y1412422D01*
X-25373Y1411916D01*
X-25188Y1411386D01*
X-25063Y1410839D01*
X-25000Y1410281D01*
X-25000Y1409719D01*
X-25000Y-10281D02*
X-25063Y-10839D01*
X-25188Y-11386D01*
X-25373Y-11916D01*
X-25617Y-12422D01*
X-25916Y-12898D01*
X-26266Y-13337D01*
X-26663Y-13734D01*
X-27102Y-14084D01*
X-27578Y-14383D01*
X-28084Y-14627D01*
X-28614Y-14812D01*
X-29161Y-14937D01*
X-29719Y-15000D01*
X-30281Y-15000D01*
X-30839Y-14937D01*
X-31386Y-14812D01*
X-31916Y-14627D01*
X-32422Y-14383D01*
X-32898Y-14084D01*
X-33337Y-13734D01*
X-33734Y-13337D01*
X-34084Y-12898D01*
X-34383Y-12422D01*
X-34627Y-11916D01*
X-34812Y-11386D01*
X-34937Y-10839D01*
X-35000Y-10281D01*
X-35000Y-9719D01*
X-34937Y-9161D01*
X-34812Y-8614D01*
X-34627Y-8084D01*
X-34383Y-7578D01*
X-34084Y-7102D01*
X-33734Y-6663D01*
X-33337Y-6266D01*
X-32898Y-5916D01*
X-32422Y-5617D01*
X-31916Y-5373D01*
X-31386Y-5188D01*
X-30839Y-5063D01*
X-30281Y-5000D01*
X-29719Y-5000D01*
X-29161Y-5063D01*
X-28614Y-5188D01*
X-28084Y-5373D01*
X-27578Y-5617D01*
X-27102Y-5916D01*
X-26663Y-6266D01*
X-26266Y-6663D01*
X-25916Y-7102D01*
X-25617Y-7578D01*
X-25373Y-8084D01*
X-25188Y-8614D01*
X-25063Y-9161D01*
X-25000Y-9719D01*
X-25000Y-10281D01*
M02*
