G04 EAGLE Gerber RS-274X export*
G75*
%MOMM*%
%FSLAX34Y34*%
%LPD*%
%INSoldermask Bottom*%
%IPPOS*%
%AMOC8*
5,1,8,0,0,1.08239X$1,22.5*%
G01*
%ADD10C,1.203200*%
%ADD11P,1.951982X8X292.500000*%
%ADD12C,1.524000*%
%ADD13C,2.743200*%
%ADD14C,1.993900*%
%ADD15C,1.524000*%
%ADD16C,1.727200*%
%ADD17P,1.869504X8X22.500000*%
%ADD18C,2.203200*%
%ADD19C,1.853200*%
%ADD20R,1.853200X1.853200*%
%ADD21P,1.951982X8X112.500000*%
%ADD22C,0.959600*%


D10*
X1210000Y1410000D03*
X1210000Y-10000D03*
X-30000Y1410000D03*
X-30000Y-10000D03*
D11*
X992000Y616800D03*
X992000Y591400D03*
D12*
X383004Y159000D02*
X369796Y159000D01*
X281404Y159000D02*
X268196Y159000D01*
X579496Y153000D02*
X592704Y153000D01*
X491104Y153000D02*
X477896Y153000D01*
X639000Y153804D02*
X639000Y140596D01*
X639000Y242196D02*
X639000Y255404D01*
D13*
X1010800Y263022D02*
X1036200Y263022D01*
X1036200Y37978D02*
X1010800Y37978D01*
X768300Y259622D02*
X742900Y259622D01*
X742900Y34578D02*
X768300Y34578D01*
X879400Y262122D02*
X904800Y262122D01*
X904800Y37078D02*
X879400Y37078D01*
D14*
X1128997Y734500D02*
X1146904Y734500D01*
X1146904Y683700D02*
X1128997Y683700D01*
X1128997Y632900D02*
X1146904Y632900D01*
X1146904Y582100D02*
X1128997Y582100D01*
X100900Y83804D02*
X100900Y65897D01*
X50100Y65897D02*
X50100Y83804D01*
X231200Y83804D02*
X231200Y65897D01*
X180400Y65897D02*
X180400Y83804D01*
X356500Y82804D02*
X356500Y64897D01*
X305700Y64897D02*
X305700Y82804D01*
D15*
X701900Y314500D03*
X701900Y339900D03*
X625700Y339900D03*
X625700Y314500D03*
X701900Y365300D03*
X701900Y390700D03*
X625700Y365300D03*
X625700Y390700D03*
X703900Y438100D03*
X703900Y463500D03*
X627700Y463500D03*
X627700Y438100D03*
X703900Y488900D03*
X703900Y514300D03*
X627700Y488900D03*
X627700Y514300D03*
X706900Y560700D03*
X706900Y586100D03*
X630700Y586100D03*
X630700Y560700D03*
X706900Y611500D03*
X706900Y636900D03*
X630700Y611500D03*
X630700Y636900D03*
D14*
X788997Y437700D02*
X806904Y437700D01*
X806904Y386900D02*
X788997Y386900D01*
X788997Y336100D02*
X806904Y336100D01*
X809904Y608800D02*
X791997Y608800D01*
X791997Y558000D02*
X809904Y558000D01*
X809904Y507200D02*
X791997Y507200D01*
X792997Y780900D02*
X810904Y780900D01*
X810904Y730100D02*
X792997Y730100D01*
X792997Y679300D02*
X810904Y679300D01*
D16*
X68120Y257100D02*
X52880Y257100D01*
X52880Y231700D02*
X68120Y231700D01*
X68120Y206300D02*
X52880Y206300D01*
X165880Y263400D02*
X181120Y263400D01*
X181120Y238000D02*
X165880Y238000D01*
X165880Y212600D02*
X181120Y212600D01*
X300880Y268700D02*
X316120Y268700D01*
X316120Y243300D02*
X300880Y243300D01*
X300880Y217900D02*
X316120Y217900D01*
X432880Y266000D02*
X448120Y266000D01*
X448120Y240600D02*
X432880Y240600D01*
X432880Y215200D02*
X448120Y215200D01*
X557880Y265300D02*
X573120Y265300D01*
X573120Y239900D02*
X557880Y239900D01*
X557880Y214500D02*
X573120Y214500D01*
D14*
X482600Y83804D02*
X482600Y65897D01*
X431800Y65897D02*
X431800Y83804D01*
D12*
X59800Y646100D02*
X46592Y646100D01*
X46592Y620700D02*
X59800Y620700D01*
X136000Y620700D02*
X149208Y620700D01*
X149208Y646100D02*
X136000Y646100D01*
X59800Y595300D02*
X46592Y595300D01*
X136000Y595300D02*
X149208Y595300D01*
X243592Y649700D02*
X256800Y649700D01*
X256800Y624300D02*
X243592Y624300D01*
X333000Y624300D02*
X346208Y624300D01*
X346208Y649700D02*
X333000Y649700D01*
X256800Y598900D02*
X243592Y598900D01*
X333000Y598900D02*
X346208Y598900D01*
X435592Y645500D02*
X448800Y645500D01*
X448800Y620100D02*
X435592Y620100D01*
X525000Y620100D02*
X538208Y620100D01*
X538208Y645500D02*
X525000Y645500D01*
X448800Y594700D02*
X435592Y594700D01*
X525000Y594700D02*
X538208Y594700D01*
D15*
X707900Y808900D03*
X707900Y834300D03*
X631700Y834300D03*
X631700Y808900D03*
X707900Y859700D03*
X707900Y885100D03*
X631700Y859700D03*
X631700Y885100D03*
D14*
X1129597Y507100D02*
X1147504Y507100D01*
X1147504Y456300D02*
X1129597Y456300D01*
D17*
X41000Y1002000D03*
X41000Y1027400D03*
X66400Y1002000D03*
X66400Y1027400D03*
X91800Y1002000D03*
X91800Y1027400D03*
X117200Y1002000D03*
X117200Y1027400D03*
X142600Y1002000D03*
X142600Y1027400D03*
X168000Y1002000D03*
X168000Y1027400D03*
X193400Y1002000D03*
X193400Y1027400D03*
X218800Y1002000D03*
X218800Y1027400D03*
X244200Y1002000D03*
X244200Y1027400D03*
X269600Y1002000D03*
X269600Y1027400D03*
X295000Y1002000D03*
X295000Y1027400D03*
X320400Y1002000D03*
X320400Y1027400D03*
X345800Y1002000D03*
X345800Y1027400D03*
X371200Y1002000D03*
X371200Y1027400D03*
X396600Y1002000D03*
X396600Y1027400D03*
X422000Y1002000D03*
X422000Y1027400D03*
X447400Y1002000D03*
X447400Y1027400D03*
X472800Y1002000D03*
X472800Y1027400D03*
X498200Y1002000D03*
X498200Y1027400D03*
X523600Y1002000D03*
X523600Y1027400D03*
D18*
X56700Y935100D03*
X56700Y681100D03*
X249700Y931500D03*
X249700Y677500D03*
X438900Y926700D03*
X438900Y672700D03*
X937100Y320900D03*
X937100Y574900D03*
X934900Y875500D03*
X934900Y621500D03*
X918900Y1042100D03*
X664900Y1042100D03*
X65300Y372100D03*
X319300Y372100D03*
X62900Y448100D03*
X316900Y448100D03*
X59500Y525100D03*
X313500Y525100D03*
X562900Y481900D03*
X308900Y481900D03*
X561700Y397700D03*
X307700Y397700D03*
D14*
X891600Y1325997D02*
X891600Y1343904D01*
X942400Y1343904D02*
X942400Y1325997D01*
X993200Y1325997D02*
X993200Y1343904D01*
X1044000Y1343904D02*
X1044000Y1325997D01*
X614700Y1325997D02*
X614700Y1343904D01*
X665500Y1343904D02*
X665500Y1325997D01*
X716300Y1325997D02*
X716300Y1343904D01*
X767100Y1343904D02*
X767100Y1325997D01*
X349800Y1325997D02*
X349800Y1343904D01*
X400600Y1343904D02*
X400600Y1325997D01*
X451400Y1325997D02*
X451400Y1343904D01*
X502200Y1343904D02*
X502200Y1325997D01*
X80900Y1326997D02*
X80900Y1344904D01*
X131700Y1344904D02*
X131700Y1326997D01*
X182500Y1326997D02*
X182500Y1344904D01*
X233300Y1344904D02*
X233300Y1326997D01*
D19*
X954600Y1114900D03*
X954600Y1241900D03*
X980000Y1114900D03*
X1005400Y1114900D03*
X1030800Y1114900D03*
X1056200Y1114900D03*
X929200Y1114900D03*
X903800Y1114900D03*
D20*
X878400Y1114900D03*
D19*
X929200Y1241900D03*
X903800Y1241900D03*
X878400Y1241900D03*
X980000Y1241900D03*
X1005400Y1241900D03*
X1030800Y1241900D03*
X1056200Y1241900D03*
X683600Y1115400D03*
X683600Y1242400D03*
X709000Y1115400D03*
X734400Y1115400D03*
X759800Y1115400D03*
X785200Y1115400D03*
X658200Y1115400D03*
X632800Y1115400D03*
D20*
X607400Y1115400D03*
D19*
X658200Y1242400D03*
X632800Y1242400D03*
X607400Y1242400D03*
X709000Y1242400D03*
X734400Y1242400D03*
X759800Y1242400D03*
X785200Y1242400D03*
X412900Y1109900D03*
X412900Y1236900D03*
X438300Y1109900D03*
X463700Y1109900D03*
X489100Y1109900D03*
X514500Y1109900D03*
X387500Y1109900D03*
X362100Y1109900D03*
D20*
X336700Y1109900D03*
D19*
X387500Y1236900D03*
X362100Y1236900D03*
X336700Y1236900D03*
X438300Y1236900D03*
X463700Y1236900D03*
X489100Y1236900D03*
X514500Y1236900D03*
X145900Y1107400D03*
X145900Y1234400D03*
X171300Y1107400D03*
X196700Y1107400D03*
X222100Y1107400D03*
X247500Y1107400D03*
X120500Y1107400D03*
X95100Y1107400D03*
D20*
X69700Y1107400D03*
D19*
X120500Y1234400D03*
X95100Y1234400D03*
X69700Y1234400D03*
X171300Y1234400D03*
X196700Y1234400D03*
X222100Y1234400D03*
X247500Y1234400D03*
D14*
X612800Y82104D02*
X612800Y64197D01*
X562000Y64197D02*
X562000Y82104D01*
X792997Y960000D02*
X810904Y960000D01*
X810904Y909200D02*
X792997Y909200D01*
X792997Y858400D02*
X810904Y858400D01*
X1128997Y1103400D02*
X1146904Y1103400D01*
X1146904Y1052600D02*
X1128997Y1052600D01*
X1128997Y1001800D02*
X1146904Y1001800D01*
X1147804Y382100D02*
X1129897Y382100D01*
X1129897Y331300D02*
X1147804Y331300D01*
D13*
X1149500Y34678D02*
X1124100Y34678D01*
X1124100Y259722D02*
X1149500Y259722D01*
D21*
X560000Y1287300D03*
X560000Y1312700D03*
X290000Y1287300D03*
X290000Y1312700D03*
X830000Y1277300D03*
X830000Y1302700D03*
X1100000Y1287300D03*
X1100000Y1312700D03*
D14*
X1128347Y945000D02*
X1146254Y945000D01*
X1146254Y895000D02*
X1128347Y895000D01*
X1128347Y845000D02*
X1146254Y845000D01*
X1146254Y795000D02*
X1128347Y795000D01*
D22*
X105000Y959000D03*
X140000Y859000D03*
X203000Y593000D03*
X391000Y636000D03*
X519000Y245000D03*
X1072000Y511000D03*
X1058000Y732000D03*
X735000Y667000D03*
X190000Y1189000D03*
X30000Y1269000D03*
M02*
