M48
;GenerationSoftware,Autodesk,EAGLE,9.5.2*%
;CreationDate,2019-12-23T16:41:29Z*%
FMAT,2
ICI,OFF
METRIC,TZ,000.000
T8C0.350
T7C0.813
T6C1.000
T5C1.016
T4C1.100
T3C1.194
T2C1.321
%
G90
M71
T2
X102350Y26302
X102350Y3798
X75560Y25962
X113680Y25972
X113680Y3468
X75560Y3458
X89210Y26212
X89210Y3708
T3
X45140Y133495
X89160Y133495
X113855Y45630
X113855Y50710
X99320Y133495
X50220Y133495
X8090Y133595
X13170Y133595
X18250Y133595
X23330Y133595
X48260Y7485
X43180Y7485
X80095Y60880
X40060Y133495
X34980Y133495
X76710Y133495
X80195Y67930
X80195Y73010
X80195Y78090
X80095Y50720
X80095Y55800
X94240Y133495
X79795Y33610
X79795Y38690
X79795Y43770
X71630Y133495
X66550Y133495
X61470Y133495
X104400Y133495
X30570Y7385
X10090Y7485
X56200Y7315
X61280Y7315
X80195Y96000
X80195Y90920
X80195Y85840
X113795Y110340
X113795Y105260
X113795Y73450
X113795Y68370
X113795Y63290
X113795Y58210
X5010Y7485
X23120Y7485
X18040Y7485
X113795Y100180
X113885Y38210
X113885Y33130
X113730Y94500
X35650Y7385
X113730Y89500
X113730Y84500
X113730Y79500
T4
X87840Y111490
X73440Y124240
X90380Y124190
X92920Y124190
X92920Y111490
X90380Y111490
X95460Y111490
X95460Y124190
X98000Y111490
X100540Y111490
X87840Y124190
X103080Y111490
X105620Y111490
X91890Y104210
X5670Y93510
X5670Y68110
X24970Y93150
X24970Y67750
X43890Y92670
X43890Y67270
X93710Y32090
X93710Y57490
X93490Y87550
X93490Y62150
X30770Y39770
X66490Y104210
X6530Y37210
X31930Y37210
X6290Y44810
X31690Y44810
X5950Y52510
X31350Y52510
X56290Y48190
X30890Y48190
X56170Y39770
X19670Y110740
X36210Y110990
X33670Y110990
X38750Y123690
X36210Y123690
X33670Y123690
X43830Y123690
X46370Y123690
X48910Y123690
X51450Y123690
X14590Y110740
X14590Y123440
X17130Y110740
X100540Y124190
X22210Y110740
X24750Y110740
X12050Y110740
X9510Y110740
X6970Y110740
X12050Y123440
X9510Y123440
X6970Y123440
X17130Y123440
X19670Y123440
X22210Y123440
X24750Y123440
X51450Y110990
X98000Y124190
X103080Y124190
X105620Y124190
X68360Y111540
X68360Y124240
X70900Y111540
X73440Y111540
X75980Y111540
X78520Y111540
X65820Y111540
X63280Y111540
X60740Y111540
X63280Y124240
X38750Y110990
X48910Y110990
X46370Y110990
X43830Y110990
X41290Y123690
X41290Y110990
X78520Y124240
X75980Y124240
X70900Y124240
X60740Y124240
X65820Y124240
T5
X34580Y102740
X52360Y102740
X52360Y100200
X49820Y102740
X49820Y100200
X56550Y26530
X14260Y102740
X14260Y100200
X11720Y102740
X11720Y100200
X9180Y102740
X9180Y100200
X6640Y102740
X6640Y100200
X4100Y102740
X4100Y100200
X56550Y21450
X56550Y23990
X47280Y100200
X44050Y21520
X44050Y24060
X44050Y26600
X30850Y21790
X30850Y24330
X30850Y26870
X17350Y21260
X17350Y23800
X17350Y26340
X6050Y20630
X6050Y23170
X6050Y25710
X16800Y102740
X29500Y102740
X29500Y100200
X32040Y100200
X32040Y102740
X34580Y100200
X37120Y100200
X37120Y102740
X39660Y100200
X39660Y102740
X42200Y100200
X42200Y102740
X44740Y100200
X44740Y102740
X47280Y102740
X16800Y100200
X19340Y100200
X19340Y102740
X21880Y100200
X21880Y102740
X24420Y100200
X26960Y102740
X26960Y100200
X24420Y102740
T6
X121000Y141000
X121000Y-1000
X-3000Y141000
X-3000Y-1000
T7
X63070Y61150
X62770Y48890
X62570Y36530
X70390Y43810
X70390Y51430
X70390Y48890
X62770Y43810
X62770Y46350
X62570Y39070
X70390Y46350
X37640Y15900
X110000Y131270
X110000Y128730
X83000Y130270
X83000Y127730
X29000Y131270
X29000Y128730
X56000Y131270
X56000Y128730
X99200Y61680
X99200Y59140
X70190Y39070
X27480Y15900
X58610Y15300
X48450Y15300
X63900Y14720
X63900Y24880
X70190Y31450
X70190Y33990
X62570Y33990
X62570Y31450
X70190Y36530
X52500Y59470
X33300Y64970
X25680Y59890
X33300Y59890
X44880Y64550
X44880Y62010
X52500Y62010
X52500Y64550
X44880Y59470
X70690Y56070
X70790Y80890
X70790Y83430
X63170Y83430
X63170Y80890
X70790Y85970
X70790Y88510
X63170Y85970
X63170Y88510
X25680Y62430
X63070Y58610
X63070Y56070
X70690Y61150
X70690Y63690
X63070Y63690
X70690Y58610
X62770Y51430
X33300Y62430
X5980Y64610
X5980Y62070
X13600Y62070
X13600Y64610
X5980Y59530
X13600Y59530
X25680Y64970
T8
X20300Y59300
X39100Y63600
X51900Y24500
X14000Y85900
X10500Y95900
X107200Y51100
X105800Y73200
X73500Y66700
X19000Y118900
X3000Y126900
M30